<svg xmlns="http://www.w3.org/2000/svg" xmlns:xlink="http://www.w3.org/1999/xlink" xmlns:s="https://github.com/nturley/netlistsvg" width="229" height="139">
  <style>svg {
    stroke:#000;
    fill:none;
  }
  text {
    fill:#000;
    stroke:none;
    font-size:10px;
    font-weight: bold;
    font-family: "Courier New", monospace;
  }
  .nodelabel {
    text-anchor: middle;
  }
  .inputPortLabel {
    text-anchor: end;
  }
  .splitjoinBody {
    fill:#000;
  }</style>
  <g s:type="mux" transform="translate(77,22)" s:width="20" s:height="40" id="cell_$abc$79$auto$blifparse.cc:371:parse_blif$82">
    <s:alias val="$pmux"/>
    <s:alias val="$mux"/>
    <s:alias val="$_MUX_"/>
    <path d="M0,0 L20,10 L20,30 L0,40 Z" class="cell_$abc$79$auto$blifparse.cc:371:parse_blif$82"/>
    <g s:x="0" s:y="10" s:pid="A"/>
    <g s:x="0" s:y="30" s:pid="B"/>
    <g s:x="10" s:y="35" s:pid="S"/>
    <g s:x="20" s:y="20" s:pid="Y"/>
  </g>
  <g s:type="mux" transform="translate(132,32)" s:width="20" s:height="40" id="cell_$abc$79$auto$blifparse.cc:371:parse_blif$83">
    <s:alias val="$pmux"/>
    <s:alias val="$mux"/>
    <s:alias val="$_MUX_"/>
    <path d="M0,0 L20,10 L20,30 L0,40 Z" class="cell_$abc$79$auto$blifparse.cc:371:parse_blif$83"/>
    <g s:x="0" s:y="10" s:pid="A"/>
    <g s:x="0" s:y="30" s:pid="B"/>
    <g s:x="10" s:y="35" s:pid="S"/>
    <g s:x="20" s:y="20" s:pid="Y"/>
  </g>
  <g s:type="inputExt" transform="translate(12,42)" s:width="30" s:height="20" id="cell_i_d">
    <text x="15" y="-4" class="nodelabel cell_i_d" s:attribute="ref">i_d</text>
    <s:alias val="$_inputExt_"/>
    <path d="M0,0 L0,20 L15,20 L30,10 L15,0 Z" class="cell_i_d"/>
    <g s:x="28" s:y="10" s:pid="Y"/>
  </g>
  <g s:type="inputExt" transform="translate(12,107)" s:width="30" s:height="20" id="cell_i_clk">
    <text x="15" y="-4" class="nodelabel cell_i_clk" s:attribute="ref">i_clk</text>
    <s:alias val="$_inputExt_"/>
    <path d="M0,0 L0,20 L15,20 L30,10 L15,0 Z" class="cell_i_clk"/>
    <g s:x="28" s:y="10" s:pid="Y"/>
  </g>
  <g s:type="outputExt" transform="translate(187,42)" s:width="30" s:height="20" id="cell_o_q">
    <text x="15" y="-4" class="nodelabel cell_o_q" s:attribute="ref">o_q</text>
    <s:alias val="$_outputExt_"/>
    <path d="M30,0 L30,20 L15,20 L0,10 L15,0 Z" class="cell_o_q"/>
    <g s:x="0" s:y="10" s:pid="A"/>
  </g>
  <line x1="97" x2="107" y1="42" y2="42" class="net_5"/>
  <line x1="107" x2="107" y1="42" y2="12" class="net_5"/>
  <line x1="107" x2="52" y1="12" y2="12" class="net_5"/>
  <line x1="52" x2="52" y1="12" y2="32" class="net_5"/>
  <circle cx="107" cy="42" r="2" style="fill:#000" class="net_5"/>
  <line x1="52" x2="77" y1="32" y2="32" class="net_5"/>
  <line x1="97" x2="132" y1="42" y2="42" class="net_5"/>
  <line x1="40" x2="77" y1="52" y2="52" class="net_2"/>
  <line x1="40" x2="52" y1="117" y2="117" class="net_3"/>
  <line x1="52" x2="52" y1="117" y2="107" class="net_3"/>
  <line x1="52" x2="87" y1="107" y2="107" class="net_3"/>
  <circle cx="52" cy="117" r="2" style="fill:#000" class="net_3"/>
  <line x1="87" x2="87" y1="107" y2="57" class="net_3"/>
  <line x1="40" x2="142" y1="117" y2="117" class="net_3"/>
  <line x1="142" x2="142" y1="117" y2="67" class="net_3"/>
  <line x1="152" x2="162" y1="52" y2="52" class="net_4"/>
  <line x1="162" x2="162" y1="52" y2="127" class="net_4"/>
  <line x1="162" x2="107" y1="127" y2="127" class="net_4"/>
  <line x1="107" x2="107" y1="127" y2="62" class="net_4"/>
  <circle cx="162" cy="52" r="2" style="fill:#000" class="net_4"/>
  <line x1="107" x2="132" y1="62" y2="62" class="net_4"/>
  <line x1="152" x2="187" y1="52" y2="52" class="net_4"/>
</svg>
