<svg xmlns="http://www.w3.org/2000/svg" xmlns:xlink="http://www.w3.org/1999/xlink" xmlns:s="https://github.com/nturley/netlistsvg" width="1194" height="494.5">
  <style>svg {
    stroke:#000;
    fill:none;
  }
  text {
    fill:#000;
    stroke:none;
    font-size:10px;
    font-weight: bold;
    font-family: "Courier New", monospace;
  }
  .nodelabel {
    text-anchor: middle;
  }
  .inputPortLabel {
    text-anchor: end;
  }
  .splitjoinBody {
    fill:#000;
  }</style>
  <g s:type="nand" transform="translate(167,213.5)" s:width="30" s:height="25" id="cell_$abc$185$auto$blifparse.cc:371:parse_blif$186">
    <s:alias val="$nand"/>
    <s:alias val="$logic_nand"/>
    <s:alias val="$_NAND_"/>
    <s:alias val="$_ANDNOT_"/>
    <path d="M0,0 L0,25 L15,25 A15 12.5 0 0 0 15,0 Z" class="cell_$abc$185$auto$blifparse.cc:371:parse_blif$186"/>
    <circle cx="34" cy="12.5" r="3" class="cell_$abc$185$auto$blifparse.cc:371:parse_blif$186"/>
    <g s:x="0" s:y="5" s:pid="A"/>
    <g s:x="0" s:y="20" s:pid="B"/>
    <g s:x="36" s:y="12.5" s:pid="Y"/>
  </g>
  <g s:type="or" transform="translate(240,334.5)" s:width="30" s:height="25" id="cell_$abc$185$auto$blifparse.cc:371:parse_blif$187">
    <s:alias val="$or"/>
    <s:alias val="$logic_or"/>
    <s:alias val="$_OR_"/>
    <path d="M0,25 L0,25 L15,25 A15 12.5 0 0 0 15,0 L0,0" class="cell_$abc$185$auto$blifparse.cc:371:parse_blif$187"/>
    <path d="M0,0 A30 25 0 0 1 0,25" class="cell_$abc$185$auto$blifparse.cc:371:parse_blif$187"/>
    <g s:x="3" s:y="5" s:pid="A"/>
    <g s:x="3" s:y="20" s:pid="B"/>
    <g s:x="30" s:y="12.5" s:pid="Y"/>
  </g>
  <g s:type="reduce_nor" transform="translate(468.66666666666663,423)" s:width="33" s:height="25" id="cell_$abc$185$auto$blifparse.cc:371:parse_blif$188">
    <s:alias val="$nor"/>
    <s:alias val="$reduce_nor"/>
    <s:alias val="$_NOR_"/>
    <s:alias val="$_ORNOT_"/>
    <path d="M0,25 L0,25 L15,25 A15 12.5 0 0 0 15,0 L0,0" class="cell_$abc$185$auto$blifparse.cc:371:parse_blif$188"/>
    <path d="M0,0 A30 25 0 0 1 0,25" class="cell_$abc$185$auto$blifparse.cc:371:parse_blif$188"/>
    <circle cx="34" cy="12.5" r="3" class="cell_$abc$185$auto$blifparse.cc:371:parse_blif$188"/>
    <g s:x="3" s:y="5" s:pid="A"/>
    <g s:x="3" s:y="20" s:pid="B"/>
    <g s:x="36" s:y="12.5" s:pid="Y"/>
  </g>
  <g s:type="nand" transform="translate(697,415.5)" s:width="30" s:height="25" id="cell_$abc$185$auto$blifparse.cc:371:parse_blif$189">
    <s:alias val="$nand"/>
    <s:alias val="$logic_nand"/>
    <s:alias val="$_NAND_"/>
    <s:alias val="$_ANDNOT_"/>
    <path d="M0,0 L0,25 L15,25 A15 12.5 0 0 0 15,0 Z" class="cell_$abc$185$auto$blifparse.cc:371:parse_blif$189"/>
    <circle cx="34" cy="12.5" r="3" class="cell_$abc$185$auto$blifparse.cc:371:parse_blif$189"/>
    <g s:x="0" s:y="5" s:pid="A"/>
    <g s:x="0" s:y="20" s:pid="B"/>
    <g s:x="36" s:y="12.5" s:pid="Y"/>
  </g>
  <g s:type="or" transform="translate(169,153.5)" s:width="30" s:height="25" id="cell_$abc$185$auto$blifparse.cc:371:parse_blif$190">
    <s:alias val="$or"/>
    <s:alias val="$logic_or"/>
    <s:alias val="$_OR_"/>
    <path d="M0,25 L0,25 L15,25 A15 12.5 0 0 0 15,0 L0,0" class="cell_$abc$185$auto$blifparse.cc:371:parse_blif$190"/>
    <path d="M0,0 A30 25 0 0 1 0,25" class="cell_$abc$185$auto$blifparse.cc:371:parse_blif$190"/>
    <g s:x="3" s:y="5" s:pid="A"/>
    <g s:x="3" s:y="20" s:pid="B"/>
    <g s:x="30" s:y="12.5" s:pid="Y"/>
  </g>
  <g s:type="reduce_nor" transform="translate(238,274.5)" s:width="33" s:height="25" id="cell_$abc$185$auto$blifparse.cc:371:parse_blif$191">
    <s:alias val="$nor"/>
    <s:alias val="$reduce_nor"/>
    <s:alias val="$_NOR_"/>
    <s:alias val="$_ORNOT_"/>
    <path d="M0,25 L0,25 L15,25 A15 12.5 0 0 0 15,0 L0,0" class="cell_$abc$185$auto$blifparse.cc:371:parse_blif$191"/>
    <path d="M0,0 A30 25 0 0 1 0,25" class="cell_$abc$185$auto$blifparse.cc:371:parse_blif$191"/>
    <circle cx="34" cy="12.5" r="3" class="cell_$abc$185$auto$blifparse.cc:371:parse_blif$191"/>
    <g s:x="3" s:y="5" s:pid="A"/>
    <g s:x="3" s:y="20" s:pid="B"/>
    <g s:x="36" s:y="12.5" s:pid="Y"/>
  </g>
  <g s:type="or" transform="translate(316,349.5)" s:width="30" s:height="25" id="cell_$abc$185$auto$blifparse.cc:371:parse_blif$192">
    <s:alias val="$or"/>
    <s:alias val="$logic_or"/>
    <s:alias val="$_OR_"/>
    <path d="M0,25 L0,25 L15,25 A15 12.5 0 0 0 15,0 L0,0" class="cell_$abc$185$auto$blifparse.cc:371:parse_blif$192"/>
    <path d="M0,0 A30 25 0 0 1 0,25" class="cell_$abc$185$auto$blifparse.cc:371:parse_blif$192"/>
    <g s:x="3" s:y="5" s:pid="A"/>
    <g s:x="3" s:y="20" s:pid="B"/>
    <g s:x="30" s:y="12.5" s:pid="Y"/>
  </g>
  <g s:type="or" transform="translate(240,228.5)" s:width="30" s:height="25" id="cell_$abc$185$auto$blifparse.cc:371:parse_blif$193">
    <s:alias val="$or"/>
    <s:alias val="$logic_or"/>
    <s:alias val="$_OR_"/>
    <path d="M0,25 L0,25 L15,25 A15 12.5 0 0 0 15,0 L0,0" class="cell_$abc$185$auto$blifparse.cc:371:parse_blif$193"/>
    <path d="M0,0 A30 25 0 0 1 0,25" class="cell_$abc$185$auto$blifparse.cc:371:parse_blif$193"/>
    <g s:x="3" s:y="5" s:pid="A"/>
    <g s:x="3" s:y="20" s:pid="B"/>
    <g s:x="30" s:y="12.5" s:pid="Y"/>
  </g>
  <g s:type="or" transform="translate(316,243.5)" s:width="30" s:height="25" id="cell_$abc$185$auto$blifparse.cc:371:parse_blif$194">
    <s:alias val="$or"/>
    <s:alias val="$logic_or"/>
    <s:alias val="$_OR_"/>
    <path d="M0,25 L0,25 L15,25 A15 12.5 0 0 0 15,0 L0,0" class="cell_$abc$185$auto$blifparse.cc:371:parse_blif$194"/>
    <path d="M0,0 A30 25 0 0 1 0,25" class="cell_$abc$185$auto$blifparse.cc:371:parse_blif$194"/>
    <g s:x="3" s:y="5" s:pid="A"/>
    <g s:x="3" s:y="20" s:pid="B"/>
    <g s:x="30" s:y="12.5" s:pid="Y"/>
  </g>
  <g s:type="generic" transform="translate(392,331.5)" s:width="30" s:height="40" id="cell_$abc$185$auto$blifparse.cc:371:parse_blif$195">
    <text x="15" y="-4" class="nodelabel cell_$abc$185$auto$blifparse.cc:371:parse_blif$195" s:attribute="ref">$_AOI3_</text>
    <rect width="30" height="60" s:generic="body" class="cell_$abc$185$auto$blifparse.cc:371:parse_blif$195"/>
    <g transform="translate(0,10)" s:x="0" s:y="10" s:pid="in0" id="port_$abc$185$auto$blifparse.cc:371:parse_blif$195~A">
      <text x="-3" y="-4" class="inputPortLabel cell_$abc$185$auto$blifparse.cc:371:parse_blif$195">A</text>
    </g>
    <g transform="translate(0,30)" s:x="0" s:y="10" s:pid="in0" id="port_$abc$185$auto$blifparse.cc:371:parse_blif$195~B">
      <text x="-3" y="-4" class="inputPortLabel cell_$abc$185$auto$blifparse.cc:371:parse_blif$195">B</text>
    </g>
    <g transform="translate(0,50)" s:x="0" s:y="10" s:pid="in0" id="port_$abc$185$auto$blifparse.cc:371:parse_blif$195~C">
      <text x="-3" y="-4" class="inputPortLabel cell_$abc$185$auto$blifparse.cc:371:parse_blif$195">C</text>
    </g>
    <g transform="translate(30,10)" s:x="30" s:y="10" s:pid="out0" id="port_$abc$185$auto$blifparse.cc:371:parse_blif$195~Y">
      <text x="5" y="-4" style="fill:#000; stroke:none" class="cell_$abc$185$auto$blifparse.cc:371:parse_blif$195">Y</text>
    </g>
  </g>
  <g s:type="or" transform="translate(316,107.5)" s:width="30" s:height="25" id="cell_$abc$185$auto$blifparse.cc:371:parse_blif$196">
    <s:alias val="$or"/>
    <s:alias val="$logic_or"/>
    <s:alias val="$_OR_"/>
    <path d="M0,25 L0,25 L15,25 A15 12.5 0 0 0 15,0 L0,0" class="cell_$abc$185$auto$blifparse.cc:371:parse_blif$196"/>
    <path d="M0,0 A30 25 0 0 1 0,25" class="cell_$abc$185$auto$blifparse.cc:371:parse_blif$196"/>
    <g s:x="3" s:y="5" s:pid="A"/>
    <g s:x="3" s:y="20" s:pid="B"/>
    <g s:x="30" s:y="12.5" s:pid="Y"/>
  </g>
  <g s:type="nand" transform="translate(469.66666666666663,137.5)" s:width="30" s:height="25" id="cell_$abc$185$auto$blifparse.cc:371:parse_blif$197">
    <s:alias val="$nand"/>
    <s:alias val="$logic_nand"/>
    <s:alias val="$_NAND_"/>
    <s:alias val="$_ANDNOT_"/>
    <path d="M0,0 L0,25 L15,25 A15 12.5 0 0 0 15,0 Z" class="cell_$abc$185$auto$blifparse.cc:371:parse_blif$197"/>
    <circle cx="34" cy="12.5" r="3" class="cell_$abc$185$auto$blifparse.cc:371:parse_blif$197"/>
    <g s:x="0" s:y="5" s:pid="A"/>
    <g s:x="0" s:y="20" s:pid="B"/>
    <g s:x="36" s:y="12.5" s:pid="Y"/>
  </g>
  <g s:type="or" transform="translate(699,322)" s:width="30" s:height="25" id="cell_$abc$185$auto$blifparse.cc:371:parse_blif$198">
    <s:alias val="$or"/>
    <s:alias val="$logic_or"/>
    <s:alias val="$_OR_"/>
    <path d="M0,25 L0,25 L15,25 A15 12.5 0 0 0 15,0 L0,0" class="cell_$abc$185$auto$blifparse.cc:371:parse_blif$198"/>
    <path d="M0,0 A30 25 0 0 1 0,25" class="cell_$abc$185$auto$blifparse.cc:371:parse_blif$198"/>
    <g s:x="3" s:y="5" s:pid="A"/>
    <g s:x="3" s:y="20" s:pid="B"/>
    <g s:x="30" s:y="12.5" s:pid="Y"/>
  </g>
  <g s:type="or" transform="translate(852.6666666666666,408)" s:width="30" s:height="25" id="cell_$abc$185$auto$blifparse.cc:371:parse_blif$199">
    <s:alias val="$or"/>
    <s:alias val="$logic_or"/>
    <s:alias val="$_OR_"/>
    <path d="M0,25 L0,25 L15,25 A15 12.5 0 0 0 15,0 L0,0" class="cell_$abc$185$auto$blifparse.cc:371:parse_blif$199"/>
    <path d="M0,0 A30 25 0 0 1 0,25" class="cell_$abc$185$auto$blifparse.cc:371:parse_blif$199"/>
    <g s:x="3" s:y="5" s:pid="A"/>
    <g s:x="3" s:y="20" s:pid="B"/>
    <g s:x="30" s:y="12.5" s:pid="Y"/>
  </g>
  <g s:type="reduce_nor" transform="translate(314,46.5)" s:width="33" s:height="25" id="cell_$abc$185$auto$blifparse.cc:371:parse_blif$200">
    <s:alias val="$nor"/>
    <s:alias val="$reduce_nor"/>
    <s:alias val="$_NOR_"/>
    <s:alias val="$_ORNOT_"/>
    <path d="M0,25 L0,25 L15,25 A15 12.5 0 0 0 15,0 L0,0" class="cell_$abc$185$auto$blifparse.cc:371:parse_blif$200"/>
    <path d="M0,0 A30 25 0 0 1 0,25" class="cell_$abc$185$auto$blifparse.cc:371:parse_blif$200"/>
    <circle cx="34" cy="12.5" r="3" class="cell_$abc$185$auto$blifparse.cc:371:parse_blif$200"/>
    <g s:x="3" s:y="5" s:pid="A"/>
    <g s:x="3" s:y="20" s:pid="B"/>
    <g s:x="36" s:y="12.5" s:pid="Y"/>
  </g>
  <g s:type="or" transform="translate(469.66666666666663,61.5)" s:width="30" s:height="25" id="cell_$abc$185$auto$blifparse.cc:371:parse_blif$201">
    <s:alias val="$or"/>
    <s:alias val="$logic_or"/>
    <s:alias val="$_OR_"/>
    <path d="M0,25 L0,25 L15,25 A15 12.5 0 0 0 15,0 L0,0" class="cell_$abc$185$auto$blifparse.cc:371:parse_blif$201"/>
    <path d="M0,0 A30 25 0 0 1 0,25" class="cell_$abc$185$auto$blifparse.cc:371:parse_blif$201"/>
    <g s:x="3" s:y="5" s:pid="A"/>
    <g s:x="3" s:y="20" s:pid="B"/>
    <g s:x="30" s:y="12.5" s:pid="Y"/>
  </g>
  <g s:type="or" transform="translate(699,76.5)" s:width="30" s:height="25" id="cell_$abc$185$auto$blifparse.cc:371:parse_blif$202">
    <s:alias val="$or"/>
    <s:alias val="$logic_or"/>
    <s:alias val="$_OR_"/>
    <path d="M0,25 L0,25 L15,25 A15 12.5 0 0 0 15,0 L0,0" class="cell_$abc$185$auto$blifparse.cc:371:parse_blif$202"/>
    <path d="M0,0 A30 25 0 0 1 0,25" class="cell_$abc$185$auto$blifparse.cc:371:parse_blif$202"/>
    <g s:x="3" s:y="5" s:pid="A"/>
    <g s:x="3" s:y="20" s:pid="B"/>
    <g s:x="30" s:y="12.5" s:pid="Y"/>
  </g>
  <g s:type="generic" transform="translate(775,89.5)" s:width="30" s:height="40" id="cell_$abc$185$auto$blifparse.cc:371:parse_blif$203">
    <text x="15" y="-4" class="nodelabel cell_$abc$185$auto$blifparse.cc:371:parse_blif$203" s:attribute="ref">$_AOI3_</text>
    <rect width="30" height="60" s:generic="body" class="cell_$abc$185$auto$blifparse.cc:371:parse_blif$203"/>
    <g transform="translate(0,10)" s:x="0" s:y="10" s:pid="in0" id="port_$abc$185$auto$blifparse.cc:371:parse_blif$203~A">
      <text x="-3" y="-4" class="inputPortLabel cell_$abc$185$auto$blifparse.cc:371:parse_blif$203">A</text>
    </g>
    <g transform="translate(0,30)" s:x="0" s:y="10" s:pid="in0" id="port_$abc$185$auto$blifparse.cc:371:parse_blif$203~B">
      <text x="-3" y="-4" class="inputPortLabel cell_$abc$185$auto$blifparse.cc:371:parse_blif$203">B</text>
    </g>
    <g transform="translate(0,50)" s:x="0" s:y="10" s:pid="in0" id="port_$abc$185$auto$blifparse.cc:371:parse_blif$203~C">
      <text x="-3" y="-4" class="inputPortLabel cell_$abc$185$auto$blifparse.cc:371:parse_blif$203">C</text>
    </g>
    <g transform="translate(30,10)" s:x="30" s:y="10" s:pid="out0" id="port_$abc$185$auto$blifparse.cc:371:parse_blif$203~Y">
      <text x="5" y="-4" style="fill:#000; stroke:none" class="cell_$abc$185$auto$blifparse.cc:371:parse_blif$203">Y</text>
    </g>
  </g>
  <g s:type="reduce_nor" transform="translate(697,12)" s:width="33" s:height="25" id="cell_$abc$185$auto$blifparse.cc:371:parse_blif$204">
    <s:alias val="$nor"/>
    <s:alias val="$reduce_nor"/>
    <s:alias val="$_NOR_"/>
    <s:alias val="$_ORNOT_"/>
    <path d="M0,25 L0,25 L15,25 A15 12.5 0 0 0 15,0 L0,0" class="cell_$abc$185$auto$blifparse.cc:371:parse_blif$204"/>
    <path d="M0,0 A30 25 0 0 1 0,25" class="cell_$abc$185$auto$blifparse.cc:371:parse_blif$204"/>
    <circle cx="34" cy="12.5" r="3" class="cell_$abc$185$auto$blifparse.cc:371:parse_blif$204"/>
    <g s:x="3" s:y="5" s:pid="A"/>
    <g s:x="3" s:y="20" s:pid="B"/>
    <g s:x="36" s:y="12.5" s:pid="Y"/>
  </g>
  <g s:type="or" transform="translate(852.6666666666666,19.5)" s:width="30" s:height="25" id="cell_$abc$185$auto$blifparse.cc:371:parse_blif$205">
    <s:alias val="$or"/>
    <s:alias val="$logic_or"/>
    <s:alias val="$_OR_"/>
    <path d="M0,25 L0,25 L15,25 A15 12.5 0 0 0 15,0 L0,0" class="cell_$abc$185$auto$blifparse.cc:371:parse_blif$205"/>
    <path d="M0,0 A30 25 0 0 1 0,25" class="cell_$abc$185$auto$blifparse.cc:371:parse_blif$205"/>
    <g s:x="3" s:y="5" s:pid="A"/>
    <g s:x="3" s:y="20" s:pid="B"/>
    <g s:x="30" s:y="12.5" s:pid="Y"/>
  </g>
  <g s:type="inputExt" transform="translate(12,383)" s:width="30" s:height="20" id="cell_i_opcode">
    <text x="15" y="-4" class="nodelabel cell_i_opcode" s:attribute="ref">i_opcode</text>
    <s:alias val="$_inputExt_"/>
    <path d="M0,0 L0,20 L15,20 L30,10 L15,0 Z" class="cell_i_opcode"/>
    <g s:x="28" s:y="10" s:pid="Y"/>
  </g>
  <g s:type="outputExt" transform="translate(1128,80)" s:width="30" s:height="20" id="cell_o_src_imm">
    <text x="15" y="-4" class="nodelabel cell_o_src_imm" s:attribute="ref">o_src_imm</text>
    <s:alias val="$_outputExt_"/>
    <path d="M30,0 L30,20 L15,20 L0,10 L15,0 Z" class="cell_o_src_imm"/>
    <g s:x="0" s:y="10" s:pid="A"/>
  </g>
  <g s:type="join" transform="translate(1087,69.5)" s:width="4" s:height="40" id="cell_$join$,9,10,11,">
    <rect width="5" height="60" class="splitjoinBody" s:generic="body"/>
    <s:alias val="$_join_"/>
    <g s:x="5" s:y="20" s:pid="out"/>
    <g transform="translate(0,10)" s:x="0" s:y="10" s:pid="in0">
      <text x="-3" y="-4" class="inputPortLabel">0</text>
    </g>
    <g transform="translate(0,30)" s:x="0" s:y="10" s:pid="in0">
      <text x="-3" y="-4" class="inputPortLabel">1</text>
    </g>
    <g transform="translate(0,50)" s:x="0" s:y="10" s:pid="in0">
      <text x="-3" y="-4" class="inputPortLabel">2</text>
    </g>
  </g>
  <g s:type="split" transform="translate(95,372.5)" s:width="5" s:height="40" id="cell_$split$,2,3,4,5,6,7,8,">
    <rect width="5" height="100" class="splitjoinBody" s:generic="body"/>
    <s:alias val="$_split_"/>
    <g s:x="0" s:y="20" s:pid="in"/>
    <g transform="translate(4,10)" s:x="4" s:y="10" s:pid="out0">
      <text x="5" y="-4">5</text>
    </g>
    <g transform="translate(4,30)" s:x="4" s:y="10" s:pid="out0">
      <text x="5" y="-4">6</text>
    </g>
    <g transform="translate(4,50)" s:x="4" s:y="10" s:pid="out0">
      <text x="5" y="-4">4</text>
    </g>
    <g transform="translate(4,70)" s:x="4" s:y="10" s:pid="out0">
      <text x="5" y="-4">3</text>
    </g>
    <g transform="translate(4,90)" s:x="4" s:y="10" s:pid="out0">
      <text x="5" y="-4">2</text>
    </g>
  </g>
  <line x1="100" x2="137" y1="383" y2="383" class="net_7"/>
  <line x1="137" x2="137" y1="383" y2="218.5" class="net_7"/>
  <circle cx="137" cy="218.5" r="2" style="fill:#000" class="net_7"/>
  <line x1="137" x2="167" y1="218.5" y2="218.5" class="net_7"/>
  <line x1="100" x2="137" y1="383" y2="383" class="net_7"/>
  <line x1="137" x2="137" y1="383" y2="158.5" class="net_7"/>
  <circle cx="137" cy="158.5" r="2" style="fill:#000" class="net_7"/>
  <line x1="137" x2="172" y1="158.5" y2="158.5" class="net_7"/>
  <line x1="100" x2="137" y1="383" y2="383" class="net_7"/>
  <line x1="137" x2="137" y1="383" y2="66.5" class="net_7"/>
  <line x1="137" x2="317" y1="66.5" y2="66.5" class="net_7"/>
  <line x1="100" x2="117" y1="403" y2="403" class="net_8"/>
  <line x1="117" x2="117" y1="403" y2="233.5" class="net_8"/>
  <circle cx="117" cy="233.5" r="2" style="fill:#000" class="net_8"/>
  <line x1="117" x2="167" y1="233.5" y2="233.5" class="net_8"/>
  <line x1="100" x2="117" y1="403" y2="403" class="net_8"/>
  <line x1="117" x2="117" y1="403" y2="173.5" class="net_8"/>
  <circle cx="117" cy="173.5" r="2" style="fill:#000" class="net_8"/>
  <line x1="117" x2="172" y1="173.5" y2="173.5" class="net_8"/>
  <line x1="100" x2="117" y1="403" y2="403" class="net_8"/>
  <line x1="117" x2="117" y1="403" y2="55.5" class="net_8"/>
  <line x1="117" x2="284" y1="55.5" y2="55.5" class="net_8"/>
  <line x1="284" x2="284" y1="55.5" y2="51.5" class="net_8"/>
  <line x1="284" x2="317" y1="51.5" y2="51.5" class="net_8"/>
  <line x1="203" x2="213" y1="226" y2="226" class="net_12"/>
  <line x1="213" x2="213" y1="226" y2="339.5" class="net_12"/>
  <line x1="213" x2="243" y1="339.5" y2="339.5" class="net_12"/>
  <line x1="100" x2="147" y1="423" y2="423" class="net_6"/>
  <line x1="147" x2="147" y1="423" y2="354.5" class="net_6"/>
  <circle cx="147" cy="354.5" r="2" style="fill:#000" class="net_6"/>
  <line x1="147" x2="243" y1="354.5" y2="354.5" class="net_6"/>
  <line x1="100" x2="147" y1="423" y2="423" class="net_6"/>
  <line x1="147" x2="147" y1="423" y2="354.5" class="net_6"/>
  <line x1="147" x2="223" y1="354.5" y2="354.5" class="net_6"/>
  <line x1="223" x2="223" y1="354.5" y2="294.5" class="net_6"/>
  <circle cx="223" cy="354.5" r="2" style="fill:#000" class="net_6"/>
  <line x1="223" x2="241" y1="294.5" y2="294.5" class="net_6"/>
  <line x1="100" x2="147" y1="423" y2="423" class="net_6"/>
  <line x1="147" x2="147" y1="423" y2="248.5" class="net_6"/>
  <circle cx="147" cy="248.5" r="2" style="fill:#000" class="net_6"/>
  <line x1="147" x2="243" y1="248.5" y2="248.5" class="net_6"/>
  <line x1="100" x2="147" y1="423" y2="423" class="net_6"/>
  <line x1="147" x2="147" y1="423" y2="81.5" class="net_6"/>
  <line x1="147" x2="472.66666666666663" y1="81.5" y2="81.5" class="net_6"/>
  <line x1="270" x2="294" y1="347" y2="347" class="net_13"/>
  <line x1="294" x2="294" y1="347" y2="428" class="net_13"/>
  <circle cx="294" cy="347" r="2" style="fill:#000" class="net_13"/>
  <line x1="294" x2="471.66666666666663" y1="428" y2="428" class="net_13"/>
  <line x1="270" x2="294" y1="347" y2="347" class="net_13"/>
  <line x1="294" x2="294" y1="347" y2="112.5" class="net_13"/>
  <line x1="294" x2="319" y1="112.5" y2="112.5" class="net_13"/>
  <line x1="100" x2="471.66666666666663" y1="443" y2="443" class="net_5"/>
  <line x1="100" x2="157" y1="443" y2="443" class="net_5"/>
  <line x1="157" x2="157" y1="443" y2="369.5" class="net_5"/>
  <circle cx="157" cy="443" r="2" style="fill:#000" class="net_5"/>
  <circle cx="157" cy="369.5" r="2" style="fill:#000" class="net_5"/>
  <line x1="157" x2="319" y1="369.5" y2="369.5" class="net_5"/>
  <line x1="100" x2="157" y1="443" y2="443" class="net_5"/>
  <line x1="157" x2="157" y1="443" y2="263.5" class="net_5"/>
  <circle cx="157" cy="263.5" r="2" style="fill:#000" class="net_5"/>
  <line x1="157" x2="319" y1="263.5" y2="263.5" class="net_5"/>
  <line x1="100" x2="157" y1="443" y2="443" class="net_5"/>
  <line x1="157" x2="157" y1="443" y2="127.5" class="net_5"/>
  <line x1="157" x2="319" y1="127.5" y2="127.5" class="net_5"/>
  <line x1="100" x2="157" y1="443" y2="443" class="net_5"/>
  <line x1="157" x2="157" y1="443" y2="127.5" class="net_5"/>
  <line x1="157" x2="284" y1="127.5" y2="127.5" class="net_5"/>
  <line x1="284" x2="284" y1="127.5" y2="96.5" class="net_5"/>
  <circle cx="284" cy="127.5" r="2" style="fill:#000" class="net_5"/>
  <line x1="284" x2="702" y1="96.5" y2="96.5" class="net_5"/>
  <line x1="99.5" x2="99.5" y1="463.5" y2="482.5" class="net_4"/>
  <line x1="99.5" x2="127" y1="482.5" y2="482.5" class="net_4"/>
  <line x1="127" x2="127" y1="482.5" y2="404.5" class="net_4"/>
  <line x1="127" x2="672" y1="404.5" y2="404.5" class="net_4"/>
  <line x1="672" x2="672" y1="404.5" y2="420.5" class="net_4"/>
  <circle cx="127" cy="404.5" r="2" style="fill:#000" class="net_4"/>
  <circle cx="672" cy="404.5" r="2" style="fill:#000" class="net_4"/>
  <line x1="672" x2="697" y1="420.5" y2="420.5" class="net_4"/>
  <line x1="99.5" x2="99.5" y1="463.5" y2="482.5" class="net_4"/>
  <line x1="99.5" x2="127" y1="482.5" y2="482.5" class="net_4"/>
  <line x1="127" x2="127" y1="482.5" y2="404.5" class="net_4"/>
  <line x1="127" x2="360" y1="404.5" y2="404.5" class="net_4"/>
  <line x1="360" x2="360" y1="404.5" y2="382" class="net_4"/>
  <circle cx="360" cy="404.5" r="2" style="fill:#000" class="net_4"/>
  <line x1="360" x2="392" y1="382" y2="382" class="net_4"/>
  <line x1="99.5" x2="99.5" y1="463.5" y2="482.5" class="net_4"/>
  <line x1="99.5" x2="127" y1="482.5" y2="482.5" class="net_4"/>
  <line x1="127" x2="127" y1="482.5" y2="142.5" class="net_4"/>
  <circle cx="127" cy="142.5" r="2" style="fill:#000" class="net_4"/>
  <line x1="127" x2="469.66666666666663" y1="142.5" y2="142.5" class="net_4"/>
  <line x1="99.5" x2="99.5" y1="463.5" y2="482.5" class="net_4"/>
  <line x1="99.5" x2="127" y1="482.5" y2="482.5" class="net_4"/>
  <line x1="127" x2="127" y1="482.5" y2="404.5" class="net_4"/>
  <line x1="127" x2="753" y1="404.5" y2="404.5" class="net_4"/>
  <line x1="753" x2="753" y1="404.5" y2="140" class="net_4"/>
  <line x1="753" x2="775" y1="140" y2="140" class="net_4"/>
  <line x1="99.5" x2="99.5" y1="463.5" y2="482.5" class="net_4"/>
  <line x1="99.5" x2="127" y1="482.5" y2="482.5" class="net_4"/>
  <line x1="127" x2="127" y1="482.5" y2="32" class="net_4"/>
  <line x1="127" x2="700" y1="32" y2="32" class="net_4"/>
  <line x1="504.66666666666663" x2="697" y1="435.5" y2="435.5" class="net_14"/>
  <line x1="199" x2="223" y1="166" y2="166" class="net_16"/>
  <line x1="223" x2="223" y1="166" y2="279.5" class="net_16"/>
  <line x1="223" x2="241" y1="279.5" y2="279.5" class="net_16"/>
  <line x1="199" x2="223" y1="166" y2="166" class="net_16"/>
  <line x1="223" x2="223" y1="166" y2="233.5" class="net_16"/>
  <circle cx="223" cy="233.5" r="2" style="fill:#000" class="net_16"/>
  <line x1="223" x2="243" y1="233.5" y2="233.5" class="net_16"/>
  <line x1="274" x2="304" y1="287" y2="287" class="net_17"/>
  <line x1="304" x2="304" y1="287" y2="354.5" class="net_17"/>
  <line x1="304" x2="319" y1="354.5" y2="354.5" class="net_17"/>
  <line x1="270" x2="304" y1="241" y2="241" class="net_19"/>
  <line x1="304" x2="304" y1="241" y2="248.5" class="net_19"/>
  <line x1="304" x2="319" y1="248.5" y2="248.5" class="net_19"/>
  <line x1="346" x2="360" y1="256" y2="256" class="net_20"/>
  <line x1="360" x2="360" y1="256" y2="342" class="net_20"/>
  <line x1="360" x2="392" y1="342" y2="342" class="net_20"/>
  <line x1="346" x2="392" y1="362" y2="362" class="net_18"/>
  <line x1="346" x2="360" y1="120" y2="120" class="net_22"/>
  <line x1="360" x2="360" y1="120" y2="157.5" class="net_22"/>
  <circle cx="360" cy="120" r="2" style="fill:#000" class="net_22"/>
  <line x1="360" x2="469.66666666666663" y1="157.5" y2="157.5" class="net_22"/>
  <line x1="346" x2="775" y1="120" y2="120" class="net_22"/>
  <line x1="346" x2="360" y1="120" y2="120" class="net_22"/>
  <line x1="360" x2="360" y1="120" y2="21" class="net_22"/>
  <line x1="360" x2="672" y1="21" y2="21" class="net_22"/>
  <line x1="672" x2="672" y1="21" y2="17" class="net_22"/>
  <line x1="672" x2="700" y1="17" y2="17" class="net_22"/>
  <line x1="505.66666666666663" x2="672" y1="150" y2="150" class="net_23"/>
  <line x1="672" x2="672" y1="150" y2="327" class="net_23"/>
  <line x1="672" x2="702" y1="327" y2="327" class="net_23"/>
  <line x1="423" x2="702" y1="342" y2="342" class="net_21"/>
  <line x1="729" x2="743" y1="334.5" y2="334.5" class="net_24"/>
  <line x1="743" x2="743" y1="334.5" y2="413" class="net_24"/>
  <circle cx="743" cy="334.5" r="2" style="fill:#000" class="net_24"/>
  <line x1="743" x2="855.6666666666666" y1="413" y2="413" class="net_24"/>
  <line x1="729" x2="743" y1="334.5" y2="334.5" class="net_24"/>
  <line x1="743" x2="743" y1="334.5" y2="39.5" class="net_24"/>
  <line x1="743" x2="855.6666666666666" y1="39.5" y2="39.5" class="net_24"/>
  <line x1="733" x2="855.6666666666666" y1="428" y2="428" class="net_15"/>
  <line x1="350" x2="370" y1="59" y2="59" class="net_25"/>
  <line x1="370" x2="370" y1="59" y2="66.5" class="net_25"/>
  <line x1="370" x2="472.66666666666663" y1="66.5" y2="66.5" class="net_25"/>
  <line x1="499.66666666666663" x2="672" y1="74" y2="74" class="net_26"/>
  <line x1="672" x2="672" y1="74" y2="81.5" class="net_26"/>
  <line x1="672" x2="702" y1="81.5" y2="81.5" class="net_26"/>
  <line x1="729" x2="753" y1="89" y2="89" class="net_27"/>
  <line x1="753" x2="753" y1="89" y2="100" class="net_27"/>
  <line x1="753" x2="775" y1="100" y2="100" class="net_27"/>
  <line x1="733" x2="855.6666666666666" y1="24.5" y2="24.5" class="net_28"/>
  <line x1="1093" x2="1128" y1="90" y2="90" class="net_9,10,11"/>
  <line x1="882.6666666666666" x2="1055" y1="32" y2="32" class="net_9"/>
  <line x1="1055" x2="1055" y1="32" y2="80" class="net_9"/>
  <line x1="1055" x2="1087" y1="80" y2="80" class="net_9"/>
  <line x1="806" x2="1087" y1="100" y2="100" class="net_10"/>
  <line x1="882.6666666666666" x2="1055" y1="420.5" y2="420.5" class="net_11"/>
  <line x1="1055" x2="1055" y1="420.5" y2="120" class="net_11"/>
  <line x1="1055" x2="1087" y1="120" y2="120" class="net_11"/>
  <line x1="40" x2="95" y1="393" y2="393" class="net_2,3,4,5,6,7,8"/>
</svg>
