<svg xmlns="http://www.w3.org/2000/svg" xmlns:xlink="http://www.w3.org/1999/xlink" xmlns:s="https://github.com/nturley/netlistsvg" width="377" height="161.5">
  <style>svg {
    stroke:#000;
    fill:none;
  }
  text {
    fill:#000;
    stroke:none;
    font-size:10px;
    font-weight: bold;
    font-family: "Courier New", monospace;
  }
  .nodelabel {
    text-anchor: middle;
  }
  .inputPortLabel {
    text-anchor: end;
  }
  .splitjoinBody {
    fill:#000;
  }</style>
  <g s:type="generic" transform="translate(144,64)" s:width="30" s:height="40" id="cell_u_riscv_adder_pc_plus_4">
    <text x="15" y="-4" class="nodelabel cell_u_riscv_adder_pc_plus_4" s:attribute="ref">riscv_adder</text>
    <rect width="30" height="40" s:generic="body" class="cell_u_riscv_adder_pc_plus_4"/>
    <g transform="translate(0,10)" s:x="0" s:y="10" s:pid="in0" id="port_u_riscv_adder_pc_plus_4~i_adder_a">
      <text x="-3" y="-4" class="inputPortLabel cell_u_riscv_adder_pc_plus_4">i_adder_a</text>
    </g>
    <g transform="translate(0,30)" s:x="0" s:y="10" s:pid="in0" id="port_u_riscv_adder_pc_plus_4~i_adder_b">
      <text x="-3" y="-4" class="inputPortLabel cell_u_riscv_adder_pc_plus_4">i_adder_b</text>
    </g>
    <g transform="translate(30,10)" s:x="30" s:y="10" s:pid="out0" id="port_u_riscv_adder_pc_plus_4~o_adder_sum">
      <text x="5" y="-4" style="fill:#000; stroke:none" class="cell_u_riscv_adder_pc_plus_4">o_adder_sum</text>
    </g>
  </g>
  <g s:type="outputExt" transform="translate(173,22)" s:width="30" s:height="20" id="cell_o_IF_instr">
    <text x="15" y="-4" class="nodelabel cell_o_IF_instr" s:attribute="ref">o_IF_instr</text>
    <s:alias val="$_outputExt_"/>
    <path d="M30,0 L30,20 L15,20 L0,10 L15,0 Z" class="cell_o_IF_instr"/>
    <g s:x="0" s:y="10" s:pid="A"/>
  </g>
  <g s:type="outputExt" transform="translate(317,64.5)" s:width="30" s:height="20" id="cell_o_IF_pc4">
    <text x="15" y="-4" class="nodelabel cell_o_IF_pc4" s:attribute="ref">o_IF_pc4</text>
    <s:alias val="$_outputExt_"/>
    <path d="M30,0 L30,20 L15,20 L0,10 L15,0 Z" class="cell_o_IF_pc4"/>
    <g s:x="0" s:y="10" s:pid="A"/>
  </g>
  <g s:type="outputExt" transform="translate(12,22)" s:width="30" s:height="20" id="cell_o_cpu_pc">
    <text x="15" y="-4" class="nodelabel cell_o_cpu_pc" s:attribute="ref">o_cpu_pc</text>
    <s:alias val="$_outputExt_"/>
    <path d="M30,0 L30,20 L15,20 L0,10 L15,0 Z" class="cell_o_cpu_pc"/>
    <g s:x="0" s:y="10" s:pid="A"/>
  </g>
  <g s:type="inputExt" transform="translate(12,64.5)" s:width="30" s:height="20" id="cell_i_IF_pc">
    <text x="15" y="-4" class="nodelabel cell_i_IF_pc" s:attribute="ref">i_IF_pc</text>
    <s:alias val="$_inputExt_"/>
    <path d="M0,0 L0,20 L15,20 L30,10 L15,0 Z" class="cell_i_IF_pc"/>
    <g s:x="28" s:y="10" s:pid="Y"/>
  </g>
  <g s:type="inputExt" transform="translate(72,22)" s:width="30" s:height="20" id="cell_i_cpu_instr">
    <text x="15" y="-4" class="nodelabel cell_i_cpu_instr" s:attribute="ref">i_cpu_instr</text>
    <s:alias val="$_inputExt_"/>
    <path d="M0,0 L0,20 L15,20 L30,10 L15,0 Z" class="cell_i_cpu_instr"/>
    <g s:x="28" s:y="10" s:pid="Y"/>
  </g>
  <g s:type="constant" transform="translate(12,129.5)" s:width="30" s:height="20" id="cell_00000000000000000000000000000100">
    <text x="15" y="-4" class="nodelabel cell_00000000000000000000000000000100" s:attribute="ref">0x4</text>
    <s:alias val="$_constant_"/>
    <rect width="30" height="20" class="cell_00000000000000000000000000000100"/>
    <g s:x="30" s:y="10" s:pid="Y"/>
  </g>
  <line x1="40" x2="144" y1="74.5" y2="74.5" class="net_66,67,68,69,70,71,72,73,74,75,76,77,78,79,80,81,82,83,84,85,86,87,88,89,90,91,92,93,94,95,96,97"/>
  <line x1="42" x2="64" y1="139.5" y2="139.5" class="net_98,99,100,101,102,103,104,105,106,107,108,109,110,111,112,113,114,115,116,117,118,119,120,121,122,123,124,125,126,127,128,129"/>
  <line x1="64" x2="64" y1="139.5" y2="94.5" class="net_98,99,100,101,102,103,104,105,106,107,108,109,110,111,112,113,114,115,116,117,118,119,120,121,122,123,124,125,126,127,128,129"/>
  <line x1="64" x2="144" y1="94.5" y2="94.5" class="net_98,99,100,101,102,103,104,105,106,107,108,109,110,111,112,113,114,115,116,117,118,119,120,121,122,123,124,125,126,127,128,129"/>
  <line x1="100" x2="173" y1="32" y2="32" class="net_2,3,4,5,6,7,8,9,10,11,12,13,14,15,16,17,18,19,20,21,22,23,24,25,26,27,28,29,30,31,32,33"/>
  <line x1="175" x2="317" y1="74.5" y2="74.5" class="net_34,35,36,37,38,39,40,41,42,43,44,45,46,47,48,49,50,51,52,53,54,55,56,57,58,59,60,61,62,63,64,65"/>
</svg>
